<?xml version="1.0" encoding="UTF-8"?>
<svg version="1.1" viewBox="0 0 980 980" width="1280" height="1280" xmlns="http://www.w3.org/2000/svg">
<path transform="translate(0)" d="m0 0h980v980h-980z" fill="#FEFEFE"/>
<path transform="translate(472,203)" d="m0 0h36l27 3 25 5 26 8 20 8 17 8 19 11 12 8 16 12 10 9 8 7 17 17 9 11 10 13 13 20 12 22 10 24 7 21 6 25 3 18 2 25v24l-2 24-4 24-6 23-6 18-9 21-10 20-12 19-12 16-9 11-11 12-13 13-11 9-14 11-18 12-18 10-23 11-19 7-25 7-21 4-16 2-14 1h-27l-24-2-28-5-25-7-26-10-19-9-17-10-15-10-13-10-14-12-23-23-11-14-11-15-12-20-10-19-10-25-7-22-6-29-3-27v-36l3-27 5-25 7-24 8-20 11-23 10-17 11-16 11-14 11-12 8-9h2v-2l8-7 10-9 19-14 19-12 25-13 20-8 21-7 27-6 21-3z"/>
<path transform="translate(504,293)" d="m0 0 16 2 12 5 16 9 22 14 22 15 10 9 7 12 3 13 1 9v19l-11 162-1 17-3 16-5 13-6 8-10 7-14 5-22 4-40 3-1 23-3 14 2 15h-54l-1-12-4-9-1-5-1-23v-12l-17-4-18-6-11-7-7-7-6-10-3-9-1-7v-16l1-19h-5l-1 9v31l3 11 4 8-1 2-7-8-4-11v-20l3-28 5-4 25-8 9-2v-8l-31 9-6 2-1-2 2-10 16-6 22-7 1-8-26 8-12 4v-8l1-3 18-7 20-7 1-8-34 12h-4l1-8 6-5 30-11h3v-7l1-2-21 7-15 6h-3l1-9 5-4 29-11 5-1 1-9-30 11-8 3v-7l5-5 10-5 21-8h3l1-9-17 6-21 8 1-7 8-7 28-11h2v-9l-30 12-7 3 1-6 7-8 12-6 17-7h2l1-9-32 13-4 3-2-1 2-15 4-15 8-15 9-9 2 1-5 17-2 11v6l4 1 2-9 4-17 5-13 5-5 3-1-6 22-1 6v9h5l2-16 7-21 4-6 6-2-3 10-4 16-1 13 5 1 2-15 4-14 5-12 4-5 5-2-2 9-4 14-1 7v10h4l5-25 5-13 3-6 8-2-3 11-3 14-1 16 5 1 2-19 4-15 5-10 7-1-4 17-1 13v11l5-1 2-25 3-10z" fill="#FEFEFE"/>
<path transform="translate(472,203)" d="m0 0h36l27 3 25 5 26 8 20 8 17 8 19 11 12 8 16 12 10 9 8 7 17 17 9 11 10 13 13 20 12 22 10 24 7 21 6 25 3 18 2 25v24l-2 24-4 24-6 23-6 18-9 21-10 20-12 19-12 16-9 11-11 12-13 13-11 9-14 11-18 12-18 10-23 11-19 7-25 7-21 4-16 2-14 1h-27l-24-2-28-5-25-7-26-10-19-9-17-10-15-10-13-10-14-12-23-23-11-14-11-15-12-20-10-19-10-25-7-22-6-29-3-27v-36l3-27 5-25 7-24 8-20 11-23 10-17 11-16 11-14 11-12 8-9h2v-2l8-7 10-9 19-14 19-12 25-13 20-8 21-7 27-6 21-3zm0 21-26 3-24 5-30 10-18 8-19 10-17 11-12 9-13 11-10 9-10 10-9 11-12 15-13 21-12 23-9 23-6 19-5 24-3 26v36l3 26 6 27 9 27 8 18 10 19 9 14 12 16 9 11 15 16 10 9 16 13 18 12 19 11 17 8 24 9 27 7 27 4 13 1h28l21-2 23-4 22-6 22-8 15-7 21-11 19-13 14-11 13-12 16-16 9-11 11-15 13-21 8-16 7-16 9-27 5-22 3-21 1-13v-27l-2-23-5-26-7-25-9-22-8-16-10-18-12-17-9-11-9-10-5-6h-2v-2l-8-7-12-11-16-12-21-13-21-11-26-10-25-7-21-4-20-2z"/>
<path transform="translate(472,224)" d="m0 0h36l25 3 24 5 23 7 24 10 19 10 19 12 13 10 13 11 8 8 2 1v2l4 2 9 10 13 16 12 18 9 16 8 16 9 22 7 25 5 26 2 23v27l-2 21-4 23-6 22-8 22-7 16-10 18-14 21-11 14-12 13-16 16-11 9-15 11-16 10-18 10-19 8-27 9-22 5-21 3-13 1h-28l-22-2-27-5-24-7-20-8-21-10-21-13-12-9-10-8-20-18-12-13-13-17-7-10-9-15-12-23-9-24-6-21-5-25-2-20v-36l3-26 5-24 6-19 10-25 12-23 12-19 13-16 12-14 13-13 11-9 14-11 15-10 18-10 19-9 25-9 23-6 25-4zm3 12-27 3-23 5-23 7-23 10-19 10-15 10-12 9-11 9-13 12-13 14-13 17-10 15-10 18-8 17-8 22-6 23-4 25-1 12v32l3 26 6 27 8 24 9 20 11 20 11 16 10 13 11 12 7 8 8 7 14 12 14 10 18 11 16 8 18 8 22 7 22 5 3-1-1-2 1-4-1-2 1-4v-3-6l1-4v-2h46v6h2l-2 5 1 4v3l-1 5 2 4-2 1 3 4 27-2 26-5 21-6 21-8 24-12 19-12 18-14 13-12 14-14 9-11 12-16 12-20 12-25 8-22 6-24 4-26 1-15v-20l-2-24-4-22-6-22-8-22-8-16-9-17-11-16-11-14-11-12-18-18-17-13-18-12-18-10-20-9-24-8-27-6-27-3z" fill="#FEFEFE"/>
<path transform="translate(435,692)" d="m0 0h75l2 2v12l-1 1h-76l-2-3v-9z" fill="#FEFEFE"/>
<path transform="translate(477,435)" d="m0 0h23l18 3 17 6 21 10 3 4-2 4-3 1-29-13-14-4-21-2-20 1-24 4-20 5v-9l14-4 19-4z"/>
<path transform="translate(484,391)" d="m0 0h20l16 3 16 6 24 11 1 7-1 1-7-1-24-11-15-5-5-1h-30l-23 4-24 7h-2l1-9 15-5 23-5z"/>
<path transform="translate(468,457)" d="m0 0h28l17 3 17 5 20 9 6 3 1 5-5 3-22-10-15-5-15-3-10-1h-18l-22 3-26 6v-9l18-5 17-3z"/>
<path transform="translate(463,480)" d="m0 0h33l18 3 16 5 24 10 1 1v5l-2 2-6-1-27-11-19-4-9-1h-24l-24 3-20 4h-3l1-8 8-3 23-4z"/>
<path transform="translate(456,504)" d="m0 0h35l21 3 19 5 15 6 6 3 1 1v5l-1 1h-6l-21-8-21-5-19-2h-23l-28 3-11 2h-4l1-9 25-4z"/>
<path transform="translate(492,369)" d="m0 0h9l15 2 15 5 26 12 6 4v5l-1 1-7-1-24-11-17-6-6-1h-24l-22 4-26 8h-4l1-8 9-4 22-6 16-3z"/>
<path transform="translate(479,413)" d="m0 0h25l18 4 21 9 15 7 1 6-2 2-6-1-26-12-12-4-14-2h-15l-24 3-28 7h-4l1-8 8-3 21-5z"/>
<path transform="translate(485,348)" d="m0 0h24l14 3 21 9 19 9 2 5-3 3-6-1-23-11-16-6-11-2h-18l-22 4-26 8-6 1 1-8 9-4 20-6 14-3z"/>
<path transform="translate(471,523)" d="m0 0 4 1 1 1-1 17-1 13v19l4 8v2l14 7 15 5 2 2-1 4-5 1-19-7-8-5-7-8-2-5-1-6v-12l3-34z"/>
<path transform="translate(452,525)" d="m0 0 5 1v13l-1 13v16l3 12 6 9 10 7 16 7 1 4-1 2-8-1-16-8-10-9-5-8-3-10v-30l2-17z"/>
<path transform="translate(434,527)" d="m0 0 4 1 1 5-1 11v21l3 15 5 10 7 7 12 7 7 3 1 4-1 2-8-1-11-6-11-9-6-10-4-11-1-5v-35l1-7z"/>
<path transform="translate(417,530)" d="m0 0 4 2v40l4 16 8 11 12 8 1 4-2 2-5-1-10-7-8-9-5-11-3-15v-21l1-15 1-3z"/>
<path transform="translate(398,535)" d="m0 0 5 1 1 43 4 11 6 9 11 8 3 2v5l-4 1-11-7-8-8-5-9-3-9-1-5v-33l1-8z"/>
<path transform="translate(384,538)" d="m0 0h5l1 5-1 14v20l3 12 6 9 8 7 8 5v5l-5 1-14-10-6-7-5-9-2-8v-35z"/>
</svg>
